# xmcd
#
# Track frame offsets: 
#        150
#        16419
#        23282
#        27924
#        37615
#        39799
#        48120
#        57875
#        66220
#        68875
#        78314
#        86718
#        88394
#        92372
#        98248
#        100453
#        103793
#        109558
#        113863
#        127959
#        142037
#        143695
#
# Disc length: 1993 seconds
#
# Revision: 0
# Processed by: cddbd v1.5.2PL0 Copyright (c) Steve Scherf et al.
# Submitted via: ExactAudioCopy v0.95a5
#
DISCID=1107c716
DTITLE=David Barrett - Mel Bay's First Lessons-Blues Harmonica
DYEAR=2003
DGENRE=Blues
TTITLE0=Materials Needed
TTITLE1=Chugging and Swing Examples 2.1-2.6
TTITLE2=12 Bar Blues Progression
TTITLE3=12 Bar Blues and Swing Examples 3.4-3.6
TTITLE4=Throat Vibrato
TTITLE5=Single Note Horn-Line Example
TTITLE6=Examples 4.1-4.6
TTITLE7=Song Examples 4.7-4.9
TTITLE8=Dip Bend
TTITLE9=Examples 5.1-5.6
TTITLE10=Song Examples 5.7-5.9
TTITLE11=Two Hole Shake
TTITLE12=Examples 6.1-6.6
TTITLE13=Song Examples 6.7-6.8
TTITLE14=Mixing Melody Line with Chording Examples
TTITLE15=Examples 7.3-7.4
TTITLE16=Song Examples 7.5-7.6
TTITLE17=Song Example 7.7
TTITLE18=Big Mama's Jelly
TTITLE19=(Background Only)
TTITLE20=Tongue Blocking Example 9.1
TTITLE21=Congratulations!
EXTD=
EXTT0=
EXTT1=
EXTT2=
EXTT3=
EXTT4=
EXTT5=
EXTT6=
EXTT7=
EXTT8=
EXTT9=
EXTT10=
EXTT11=
EXTT12=
EXTT13=
EXTT14=
EXTT15=
EXTT16=
EXTT17=
EXTT18=
EXTT19=
EXTT20=
EXTT21=
PLAYORDER=
